HIERARCHY
ROOT Hips
{
	OFFSET 0.000000 0.000000 0.000000
	CHANNELS 6 Xposition Yposition Zposition Xrotation Yrotation Zrotation
	JOINT LeftUpLeg_virtual
	{
		OFFSET 0.000000 0.000000 0.000000
		CHANNELS 3 Xrotation Yrotation Zrotation
		JOINT LeftUpLeg
		{
			OFFSET 11.394100 -6.187798 -0.413800
			CHANNELS 3 Xrotation Yrotation Zrotation
			JOINT LeftLeg
			{
				OFFSET 0.430247 -32.302673 3.732800
				CHANNELS 3 Xrotation Yrotation Zrotation
				JOINT LeftFoot
				{
					OFFSET -0.430247 -48.264931 -6.423300
					CHANNELS 3 Xrotation Yrotation Zrotation
					JOINT LeftToeBase
					{
						OFFSET 4.230900 -16.068199 23.438400
						CHANNELS 3 Xrotation Yrotation Zrotation
						JOINT LeftToe_End
						{
							OFFSET 4.510700 0.695400 19.974600
							CHANNELS 3 Xrotation Yrotation Zrotation
							End Site
							{
								OFFSET 0 0 0
							}
						}
					}
				}
			}
		}
	}
	JOINT RightUpLeg_virtual
	{
		OFFSET 0.000000 0.000000 0.000000
		CHANNELS 3 Xrotation Yrotation Zrotation
		JOINT RightUpLeg
		{
			OFFSET -11.333700 -6.187798 -0.413800
			CHANNELS 3 Xrotation Yrotation Zrotation
			JOINT RightLeg
			{
				OFFSET -0.430392 -32.302628 3.733000
				CHANNELS 3 Xrotation Yrotation Zrotation
				JOINT RightFoot
				{
					OFFSET 0.430392 -48.264973 -6.423500
					CHANNELS 3 Xrotation Yrotation Zrotation
					JOINT RightToeBase
					{
						OFFSET -4.230900 -16.068199 23.438400
						CHANNELS 3 Xrotation Yrotation Zrotation
						JOINT RightToe_End
						{
							OFFSET -4.510700 0.695400 19.974600
							CHANNELS 3 Xrotation Yrotation Zrotation
							End Site
							{
								OFFSET 0 0 0
							}
						}
					}
				}
			}
		}
	}
	JOINT Spine_virtual
	{
		OFFSET 0.000000 0.000000 0.000000
		CHANNELS 3 Xrotation Yrotation Zrotation
		JOINT Spine
		{
			OFFSET -0.002400 12.777504 0.315300
			CHANNELS 3 Xrotation Yrotation Zrotation
			JOINT Spine1
			{
				OFFSET -0.002067 5.816869 0.032633
				CHANNELS 3 Xrotation Yrotation Zrotation
				JOINT Spine1_split
				{
					OFFSET -0.002067 5.816869 0.032633
					CHANNELS 3 Xrotation Yrotation Zrotation
					JOINT Spine2
					{
						OFFSET -0.002067 5.816869 0.032633
						CHANNELS 3 Xrotation Yrotation Zrotation
						JOINT Neck_virtual
						{
							OFFSET 0.000000 0.000000 0.000000
							CHANNELS 3 Xrotation Yrotation Zrotation
							JOINT Neck
							{
								OFFSET -0.003700 21.199493 -0.826900
								CHANNELS 3 Xrotation Yrotation Zrotation
								JOINT Head
								{
									OFFSET 0.000000 20.442200 4.834800
									CHANNELS 3 Xrotation Yrotation Zrotation
									JOINT HeadTop_End
									{
										OFFSET 0.000000 34.668396 4.968400
										CHANNELS 3 Xrotation Yrotation Zrotation
										End Site
										{
											OFFSET 0 0 0
										}
									}
								}
							}
						}
						JOINT LeftShoulder_virtual
						{
							OFFSET 0.000000 0.000000 0.000000
							CHANNELS 3 Xrotation Yrotation Zrotation
							JOINT LeftShoulder
							{
								OFFSET 3.288150 8.794197 -1.372250
								CHANNELS 3 Xrotation Yrotation Zrotation
								JOINT LeftShoulder_split
								{
									OFFSET 3.288150 8.794197 -1.372250
									CHANNELS 3 Xrotation Yrotation Zrotation
									JOINT LeftArm
									{
										OFFSET 11.953299 -2.279007 -0.146200
										CHANNELS 3 Xrotation Yrotation Zrotation
										JOINT LeftForeArm
										{
											OFFSET 18.448900 0.000000 0.000000
											CHANNELS 3 Xrotation Yrotation Zrotation
											JOINT LeftHand
											{
												OFFSET 29.527798 0.000000 0.000000
												CHANNELS 3 Xrotation Yrotation Zrotation
												End Site
												{
													OFFSET 0 0 0
												}
											}
										}
									}
								}
							}
						}
						JOINT RightShoulder_virtual
						{
							OFFSET 0.000000 0.000000 0.000000
							CHANNELS 3 Xrotation Yrotation Zrotation
							JOINT RightShoulder
							{
								OFFSET -3.249400 8.794197 -1.372250
								CHANNELS 3 Xrotation Yrotation Zrotation
								JOINT RightShoulder_split
								{
									OFFSET -3.249400 8.794197 -1.372250
									CHANNELS 3 Xrotation Yrotation Zrotation
									JOINT RightArm
									{
										OFFSET -11.953299 -2.279007 -0.146200
										CHANNELS 3 Xrotation Yrotation Zrotation
										JOINT RightForeArm
										{
											OFFSET -18.448900 0.000000 0.000000
											CHANNELS 3 Xrotation Yrotation Zrotation
											JOINT RightHand
											{
												OFFSET -29.527802 0.000000 0.000000
												CHANNELS 3 Xrotation Yrotation Zrotation
												End Site
												{
													OFFSET 0 0 0
												}
											}
										}
									}
								}
							}
						}
					}
				}
			}
		}
	}
}
MOTION
Frames: 5
Frame Time: 0.03333333
2.399422 79.694572 5.911697 0.000000 0.000000 0.000000 1.980164 -19.175227 -0.774570 -54.393093 -1.821949 19.061873 64.040783 -0.153388 1.893218 -4.663844 2.784001 -14.329083 -1.232155 -1.880027 -0.165790 0.000000 0.000000 0.000000 1.127774 -18.421778 -1.059607 -15.694392 -23.534349 -23.345822 47.183715 14.287796 -8.762657 -13.069956 -32.486422 34.297211 1.994077 19.807214 -29.711009 0.000000 0.000000 0.000000 2.510331 -14.454427 -1.519308 10.750756 11.124002 -5.461918 0.342255 -1.466790 -0.450790 0.188021 -0.169688 0.005043 0.000000 0.000000 0.000000 6.511853 0.288828 0.691882 -4.255419 11.754910 5.291237 -18.236383 20.229222 -14.395865 0.000000 0.000000 0.000000 3.107700 -1.333616 -0.270979 0.375630 2.291371 0.352233 6.174838 -6.634965 3.365481 -67.807693 7.458185 -46.421627 -177.336819 -84.274740 178.549232 0.000000 0.000000 0.000000 3.062461 -2.168343 0.675839 0.371297 14.264750 -11.037554 -7.748200 -1.738322 -0.512062 -35.929558 14.990956 60.244768 -161.725820 72.400333 156.436781 0.000000 0.000000 0.000000 
2.403388 79.291290 4.222805 0.000000 0.000000 0.000000 1.149084 -22.831096 -0.566114 -53.488550 -0.337837 20.947717 63.556174 -0.014444 1.850741 -3.925858 3.467535 -15.126362 -1.643132 -2.135854 -0.132595 0.000000 0.000000 0.000000 0.056194 -21.878247 -0.873428 -16.407779 -23.358668 -23.738679 48.249252 12.713035 -8.517673 -15.812947 -33.689328 35.821351 5.352830 18.791913 -31.236545 0.000000 0.000000 0.000000 1.410330 -18.086790 -1.213295 10.634456 10.384070 -5.140055 0.742607 -1.628991 -0.499665 0.195223 -0.066394 0.042377 0.000000 0.000000 0.000000 6.473471 0.185614 0.630655 -4.707634 12.520318 4.242524 -17.804683 18.320172 -15.042371 0.000000 0.000000 0.000000 3.384438 -1.476888 -0.215801 0.278831 2.640118 0.080612 6.384048 -6.240565 3.713203 -69.302931 8.222462 -45.978911 167.507903 -85.000290 162.539050 0.000000 0.000000 0.000000 3.211795 -2.332017 0.663566 -0.070869 14.835915 -10.265627 -6.582954 -1.195861 -0.787885 -37.669490 14.872293 62.633081 -161.198885 72.251572 156.051982 0.000000 0.000000 0.000000 
2.292937 79.016136 2.540844 0.000000 0.000000 0.000000 0.564436 -25.643365 -0.108073 -53.212054 1.043690 22.710430 62.532643 -0.051668 1.692120 -2.446314 3.282145 -15.928098 -2.082589 -2.380104 0.134111 0.000000 0.000000 0.000000 -0.621674 -24.807927 -0.350861 -16.984512 -22.734705 -24.090888 49.346238 11.711154 -8.412164 -18.006067 -34.169217 37.563524 7.209044 18.004756 -31.881025 0.000000 0.000000 0.000000 0.569382 -20.948076 -0.683027 10.310611 9.510501 -4.843128 1.084901 -1.736879 -0.561198 0.180783 -0.023042 0.068613 0.000000 0.000000 0.000000 6.381969 0.138484 0.588959 -4.569545 13.283643 3.067427 -17.398039 16.360931 -15.715193 0.000000 0.000000 0.000000 3.611413 -1.558751 -0.179284 0.219240 3.170594 -0.363249 6.373594 -6.041301 3.740816 -69.926363 8.809580 -45.910752 148.912331 -85.212265 143.317518 0.000000 0.000000 0.000000 3.355340 -2.420253 0.649566 -0.551673 15.027593 -9.718698 -5.332043 -0.853117 -0.817818 -39.405561 14.676987 65.382867 -161.090435 71.886068 155.958012 0.000000 0.000000 0.000000 
2.051629 78.907402 0.884022 0.000000 0.000000 0.000000 0.197580 -27.625749 0.511847 -53.614478 2.156973 24.369396 61.155021 -0.160672 1.429391 -0.070308 2.304799 -16.510939 -2.784011 -2.617162 0.593358 0.000000 0.000000 0.000000 -0.957951 -27.204908 0.336908 -17.503026 -21.672603 -24.264766 50.386978 11.116929 -8.417803 -19.758574 -34.079338 39.049394 8.009677 17.390365 -31.513905 0.000000 0.000000 0.000000 0.028153 -23.040103 -0.012883 9.784576 8.570679 -4.498443 1.368491 -1.818106 -0.602270 0.172854 -0.010364 0.068668 0.000000 0.000000 0.000000 6.260201 0.125597 0.599828 -3.955777 14.030103 1.946475 -17.030889 14.577063 -16.462399 0.000000 0.000000 0.000000 3.791043 -1.613933 -0.144885 0.202828 3.832804 -0.905920 6.246465 -6.051941 3.569690 -69.715372 9.301114 -46.305759 132.611237 -84.816729 126.636215 0.000000 0.000000 0.000000 3.493401 -2.456170 0.653459 -1.013435 14.902428 -9.446197 -4.031415 -0.814724 -0.874335 -41.101046 14.380830 68.244218 -160.982682 71.704303 155.744856 0.000000 0.000000 0.000000 
1.747538 79.023773 -0.780807 0.000000 0.000000 0.000000 0.045712 -29.039205 1.193637 -54.459178 2.914277 25.710586 59.602375 -0.093352 1.063264 2.807344 0.897103 -16.393212 -3.506270 -2.825203 0.851069 0.000000 0.000000 0.000000 -0.978281 -28.968229 1.078475 -17.857781 -20.295074 -24.190612 51.319391 10.786884 -8.496383 -21.512617 -33.708285 39.607420 8.477277 16.715698 -30.185389 0.000000 0.000000 0.000000 -0.201359 -24.524093 0.726550 9.130153 7.648401 -4.083865 1.597334 -1.877494 -0.616071 0.136740 -0.031142 0.072251 0.000000 0.000000 0.000000 6.139882 0.129641 0.681536 -3.048861 14.741478 1.049611 -16.705982 13.193940 -17.370305 0.000000 0.000000 0.000000 3.911426 -1.639347 -0.103461 0.223027 4.590376 -1.438545 6.082038 -6.447239 3.354998 -68.917141 9.773967 -47.091593 122.452956 -84.020233 116.322957 0.000000 0.000000 0.000000 3.606775 -2.473554 0.681230 -1.427244 14.587356 -9.424571 -2.727108 -0.950370 -0.842572 -42.599238 14.151691 70.932717 -160.629397 71.896122 155.192731 0.000000 0.000000 0.000000 
